<?xml version="1.0" standalone="no"?>
<!DOCTYPE svg PUBLIC "-//W3C//DTD SVG 20010904//EN"
 "http://www.w3.org/TR/2001/REC-SVG-20010904/DTD/svg10.dtd">
<svg version="1.0" xmlns="http://www.w3.org/2000/svg"
 width="1600.000000pt" height="1600.000000pt" viewBox="0 0 1600.000000 1600.000000"
 preserveAspectRatio="xMidYMid meet">
<metadata>
Created by potrace 1.14, written by Peter Selinger 2001-2017
</metadata>
<g transform="translate(0.000000,1600.000000) scale(0.100000,-0.100000)"
fill="#000000" stroke="none">
<path d="M10970 14594 c-231 -44 -398 -133 -552 -292 -133 -138 -218 -300
-252 -481 -12 -64 -16 -150 -16 -372 l0 -289 -1372 0 -1373 1 -80 95 c-160
191 -428 433 -650 586 -375 260 -822 448 -1275 537 -238 47 -341 56 -655 55
-313 0 -416 -9 -649 -55 -666 -133 -1263 -450 -1741 -925 -581 -577 -924
-1314 -996 -2139 -14 -163 -6 -549 16 -705 103 -759 420 -1409 952 -1951 l143
-146 0 -3040 c0 -2080 3 -3058 11 -3099 65 -371 352 -658 723 -723 41 -8 1600
-11 5030 -11 4817 0 4974 1 5062 19 339 70 613 352 680 699 21 111 21 9973 0
10084 -54 281 -238 517 -498 637 -166 77 -142 75 -810 79 l-597 3 -3 322 c-4
297 -6 328 -27 402 -79 281 -273 510 -536 631 -124 57 -211 76 -370 79 -77 2
-151 1 -165 -1z m253 -489 c178 -46 320 -193 357 -368 7 -37 10 -382 8 -1163
l-3 -1109 -23 -59 c-76 -202 -243 -320 -452 -320 -202 0 -380 124 -451 316
l-24 63 -3 1109 c-2 781 1 1126 8 1163 55 261 329 434 583 368z m-6211 -720
c554 -65 1044 -305 1428 -701 214 -221 371 -456 484 -726 118 -281 172 -533
183 -843 38 -1109 -708 -2095 -1787 -2365 -205 -51 -322 -65 -570 -65 -293 0
-432 20 -697 101 -742 226 -1332 819 -1562 1569 -117 383 -132 826 -40 1220
170 730 692 1350 1382 1639 372 156 789 217 1179 171z m8496 -7107 c-3 -3656
-4 -3845 -21 -3888 -45 -113 -142 -209 -250 -247 -50 -17 -262 -18 -5007 -18
-4745 0 -4957 1 -5007 18 -108 38 -205 134 -250 247 -17 43 -18 204 -21 3197
l-2 3152 102 -73 c406 -289 860 -465 1368 -528 135 -16 524 -17 660 0 142 18
373 65 493 100 l97 29 0 -433 0 -434 640 0 640 0 0 640 0 640 -236 2 -235 3
109 88 c398 320 733 788 907 1270 l28 77 2993 0 2994 0 -2 -3842z"/>
<path d="M4612 12794 c-29 -14 -64 -40 -77 -58 -57 -74 -55 -54 -55 -724 l0
-618 -31 -30 c-161 -150 -184 -414 -51 -589 72 -95 185 -160 299 -172 l52 -6
388 -454 c345 -404 394 -457 440 -480 109 -53 243 -13 307 91 40 64 47 153 18
218 -12 28 -159 208 -382 467 l-362 423 17 63 c47 173 -19 361 -163 469 l-52
39 0 601 0 601 -24 50 c-28 60 -56 87 -116 114 -65 30 -143 28 -208 -5z"/>
<path d="M7590 8040 l0 -640 640 0 640 0 0 640 0 640 -640 0 -640 0 0 -640z"/>
<path d="M9510 8040 l0 -640 640 0 640 0 0 640 0 640 -640 0 -640 0 0 -640z"/>
<path d="M11430 8040 l0 -640 640 0 640 0 0 640 0 640 -640 0 -640 0 0 -640z"/>
<path d="M3750 6120 l0 -640 640 0 640 0 0 640 0 640 -640 0 -640 0 0 -640z"/>
<path d="M5670 6120 l0 -640 640 0 640 0 0 640 0 640 -640 0 -640 0 0 -640z"/>
<path d="M7590 6120 l0 -640 640 0 640 0 0 640 0 640 -640 0 -640 0 0 -640z"/>
<path d="M9510 6120 l0 -640 640 0 640 0 0 640 0 640 -640 0 -640 0 0 -640z"/>
<path d="M11430 6120 l0 -640 640 0 640 0 0 640 0 640 -640 0 -640 0 0 -640z"/>
<path d="M3750 4200 l0 -640 640 0 640 0 0 640 0 640 -640 0 -640 0 0 -640z"/>
<path d="M5670 4200 l0 -640 640 0 640 0 0 640 0 640 -640 0 -640 0 0 -640z"/>
<path d="M7590 4200 l0 -640 640 0 640 0 0 640 0 640 -640 0 -640 0 0 -640z"/>
<path d="M9510 4200 l0 -640 640 0 640 0 0 640 0 640 -640 0 -640 0 0 -640z"/>
</g>
</svg>
