<?xml version="1.0" standalone="no"?>
<!DOCTYPE svg PUBLIC "-//W3C//DTD SVG 20010904//EN"
 "http://www.w3.org/TR/2001/REC-SVG-20010904/DTD/svg10.dtd">
<svg version="1.0" xmlns="http://www.w3.org/2000/svg"
 width="1600.000000pt" height="1600.000000pt" viewBox="0 0 1600.000000 1600.000000"
 preserveAspectRatio="xMidYMid meet">
<metadata>
Created by potrace 1.14, written by Peter Selinger 2001-2017
</metadata>
<g transform="translate(0.000000,1600.000000) scale(0.100000,-0.100000)"
fill="#000000" stroke="none">
<path d="M10958 15396 c-1 -2 -28 -6 -58 -9 -501 -55 -980 -353 -1263 -788
-116 -177 -191 -353 -242 -566 l-18 -73 -806 0 -806 0 -95 93 c-81 79 -179
167 -281 252 -76 64 -324 245 -334 245 -3 0 -11 5 -18 10 -64 54 -355 215
-547 302 -449 205 -916 326 -1405 365 -191 15 -657 8 -785 -11 -14 -2 -50 -7
-80 -11 -60 -7 -111 -14 -150 -21 -166 -28 -227 -41 -358 -75 -210 -54 -449
-135 -630 -215 -250 -110 -587 -299 -757 -426 -99 -74 -241 -183 -245 -187 -3
-3 -39 -35 -80 -71 -119 -103 -285 -264 -365 -355 -177 -202 -353 -435 -450
-597 -128 -213 -218 -385 -285 -543 -24 -55 -51 -118 -60 -140 -44 -100 -166
-494 -185 -598 -3 -12 -9 -42 -15 -67 -8 -39 -19 -97 -35 -192 -3 -20 -15
-100 -30 -213 -26 -193 -26 -788 0 -925 2 -9 6 -43 10 -75 14 -128 54 -332 96
-500 120 -475 340 -957 618 -1353 36 -52 73 -104 81 -115 19 -29 177 -224 211
-262 15 -16 39 -43 53 -60 l26 -30 1 -2880 c0 -1584 2 -2893 3 -2910 24 -278
123 -571 262 -779 21 -32 44 -66 49 -75 6 -9 12 -18 15 -21 3 -3 31 -36 62
-75 137 -170 318 -311 548 -427 189 -95 387 -149 614 -168 164 -13 9801 -13
9991 0 357 25 672 147 945 366 85 68 224 211 288 297 148 195 264 462 314 718
l22 114 4 4945 c2 3370 0 4992 -8 5093 -25 366 -144 665 -392 985 -122 158
-376 349 -589 443 -243 106 -435 145 -748 148 -113 1 -208 4 -212 6 -3 3 -12
31 -18 64 -44 226 -208 555 -376 756 -54 64 -167 174 -235 226 -30 24 -57 46
-60 49 -3 3 -30 21 -60 41 -233 152 -461 239 -750 285 -38 6 -376 14 -382 10z"/>
</g>
</svg>
